<svg width="1000" height="240" viewBox="0 0 1000 240" fill="none" xmlns="http://www.w3.org/2000/svg">
<path fill-rule="evenodd" clip-rule="evenodd" d="M156.994 50.934C149.803 53.122 144.16 57.976 141.553 64.218C140.215 67.42 140 75.271 140 120.811V173.685L142.326 178.093C145.439 183.991 151.635 188.575 158.39 189.977C162.117 190.751 179.302 191.01 213.161 190.802C261.638 190.505 262.571 190.462 266.568 188.322C272.09 185.367 277.662 178.971 278.98 174.072C279.717 171.338 279.977 153.295 279.784 118.266L279.5 66.5L276.746 61.815C275.232 59.239 272.611 56.147 270.924 54.946C264.219 50.171 261.966 49.994 209.091 50.086C181.816 50.133 158.372 50.515 156.994 50.934ZM177.75 80.58C177.338 80.994 177 99.743 177 122.244V163.154L201.775 162.827L226.55 162.5L233.268 159.191C238.571 156.578 240.52 154.969 242.527 151.544C248.939 140.603 245.488 125.54 235.399 120.432L231.315 118.364L234.533 116.254C241.673 111.574 244.146 99.379 239.673 90.907C237.856 87.466 236.063 85.842 231.496 83.5L225.647 80.5L202.073 80.163C189.108 79.977 178.162 80.165 177.75 80.58ZM313 121.409V162H335.818C360.984 162 365.567 161.269 372.667 156.126C378.295 152.05 380.5 147.087 380.5 138.5C380.5 129.759 378.24 124.815 372.594 121.202C370.342 119.762 368.333 118.473 368.13 118.338C367.926 118.203 369.371 116.573 371.34 114.716C375.691 110.612 377 107.417 377 100.903C377 92.238 373.482 86.869 365.486 83.332C362.127 81.846 357.684 81.509 337.25 81.193L313 80.818V121.409ZM542 94.445V102.89L537.25 103.195L532.5 103.5V109V114.5L537.25 114.805L542 115.11V133.587C542 154.122 542.789 157.805 547.735 160.363C551.353 162.234 561.725 163.462 566.441 162.577L570 161.909V155.678V149.447L566.25 149.79C564.007 149.994 561.696 149.536 560.5 148.648C558.647 147.273 558.5 146.003 558.5 131.332V115.5L564.25 115.2L570 114.9V109V103.1L564.25 102.8L558.5 102.5L558.21 94.25L557.919 86H549.96H542V94.445ZM648 94.5V103H643.5H639V109V115H643.424H647.847L648.174 134.43C648.474 152.285 648.669 154.088 650.59 156.68C651.739 158.231 653.83 160.064 655.235 160.754C658.612 162.412 668.854 163.438 673.44 162.577L677.093 161.892L676.796 155.712L676.5 149.532L672.388 149.833C665.4 150.343 665 149.323 665 130.978V115.1L670.75 114.8L676.5 114.5V109V103.5L670.75 103.2L665 102.9V94.45V86H656.5H648V94.5ZM192 104V115H204.532C222.592 115 227 112.593 227 102.732C227 98.945 226.473 97.382 224.545 95.455C222.157 93.066 221.686 93 207.045 93H192V104ZM331 105V114H341.032C353.393 114 357.307 112.631 358.921 107.741C359.742 105.252 359.762 103.503 358.991 101.476C357.147 96.626 355.477 96.066 342.75 96.032L331 96V105ZM411.857 103.389C398.216 108.263 391.183 119.742 392.233 135.421C393.054 147.69 398.529 156.064 408.802 160.767C416.042 164.081 428.464 164.213 435.63 161.051C449.724 154.831 456.129 138.659 451.081 122.04C448.346 113.037 443.064 107.29 434.619 104.131C428.062 101.677 417.603 101.337 411.857 103.389ZM485 102.887C476.135 105.763 470.407 110.677 466.804 118.5C463.605 125.446 463.493 140.32 466.589 147.011C469.362 153.005 474.313 157.796 480.802 160.767C488.042 164.081 500.464 164.213 507.63 161.051C521.061 155.123 527.646 139.877 523.598 124.077C520.021 110.113 510.458 102.679 495.573 102.288C491.133 102.172 486.375 102.441 485 102.887ZM591.976 103.534C583.498 106.148 578.192 113.938 579.294 122.155C580.373 130.199 584.718 133.43 599.038 136.838C610.442 139.551 612.61 140.475 614.563 143.455C616.1 145.802 616.105 146.191 614.618 148.461C612.573 151.582 606.749 153.207 601.722 152.06C597.1 151.005 595.576 149.805 593.986 145.967C592.781 143.057 592.616 143 585.379 143C578.144 143 578 143.05 578 145.54C578 149.622 581.734 155.796 585.852 158.52C591.353 162.161 595.339 163.091 605.65 163.139C618.782 163.2 625.99 159.855 630.106 151.79C633.838 144.478 631.911 135.487 625.707 131.266C623.901 130.037 617.086 127.675 610.564 126.016C597.588 122.717 596 121.89 596 118.434C596 111.367 612.611 111.329 614.384 118.392C615.016 120.912 615.291 121 622.519 121H630V118.148C630 112.408 622.884 105.173 615.118 103.016C610.013 101.598 597.336 101.882 591.976 103.534ZM712.459 103.88C710.236 104.889 707.227 107.129 705.773 108.858C704.319 110.586 702.875 112 702.565 112C702.254 112 702 109.975 702 107.5V103H694.5H687V132.5V162H694.901H702.802L703.155 144.75C703.463 129.684 703.76 127.076 705.504 124.155C708.149 119.722 713.65 117 719.96 117H725V109.5V102L720.75 102.022C718.413 102.034 714.681 102.87 712.459 103.88ZM747.196 103.897C739.103 106.693 733 113.601 733 119.968C733 121.837 733.625 122 740.815 122H748.63L750.309 118.477C752.172 114.571 755.219 113 760.93 113C765.866 113 770 116.153 770 119.918C770 124.428 767.36 125.81 755.449 127.537C749.196 128.443 742.57 130.062 740 131.312C728.925 136.697 728.084 153.583 738.549 160.44C744.546 164.37 759.871 164.097 766.594 159.942C770.486 157.536 770.646 157.538 771.29 160C771.759 161.795 772.654 162 780.015 162H788.217L787.543 159.316C787.173 157.839 786.908 148.174 786.955 137.838C787.052 116.415 786.163 111.157 781.83 107.511C775.323 102.035 757.863 100.213 747.196 103.897ZM826.5 103.204C824.85 103.779 822.35 105.318 820.945 106.625C817.61 109.725 817 109.622 817 105.958V102.916L809.25 103.208L801.5 103.5V143V182.5L809.75 182.79L818 183.081V169.366V155.651L820.25 157.709C824.43 161.53 829.147 163.25 835.442 163.247C845.95 163.241 853.893 158.161 858.098 148.757C860.083 144.319 860.449 141.865 860.449 133C860.449 124.119 860.085 121.685 858.085 117.212C855.304 110.992 848.792 104.853 843.193 103.176C838.461 101.758 830.609 101.771 826.5 103.204ZM418.5 114.669C415.364 115.493 411.161 119.984 409.85 123.915C408.199 128.865 408.438 138.747 410.317 143.228C414.577 153.389 429.52 153.676 434.057 143.684C436.58 138.126 436.68 126.84 434.248 122.071C431.255 116.2 424.594 113.07 418.5 114.669ZM490.5 114.672C483.079 116.63 478.706 127.869 481.073 138.904C482.702 146.501 486.245 150.125 492.644 150.74C503.408 151.774 508.603 144.977 507.789 130.921C507.314 122.713 505.826 119.243 501.592 116.468C498.945 114.734 493.566 113.863 490.5 114.672ZM827 114.656C824.583 115.621 820.925 119.279 819.349 122.308C817.259 126.326 817.417 138.968 819.614 143.6C822.087 148.811 826.358 151.21 832.26 150.701C840.633 149.981 844.318 144.596 844.372 133C844.41 124.925 843.105 121.289 838.693 117.168C836.197 114.836 829.924 113.488 827 114.656ZM192 138.433V151H206.032C220.981 151 224.83 150.149 228.5 146.033C230.018 144.33 230.5 142.376 230.5 137.918C230.5 132.835 230.127 131.673 227.73 129.273L224.96 126.5L208.48 126.183L192 125.865V138.433ZM331.667 126.667C331.3 127.033 331 132.019 331 137.746V148.159L344.085 147.829L357.169 147.5L360.198 144.107C362.848 141.139 363.166 140.162 362.732 136.316C362.137 131.038 359.936 128.355 355.1 127.011C351.084 125.896 332.708 125.625 331.667 126.667ZM764.5 135.667C763.4 135.907 760.097 136.57 757.161 137.141C754.224 137.712 750.961 139.039 749.911 140.089C747.335 142.665 747.403 148.15 750.041 150.537C752.504 152.766 760.658 153.056 764.411 151.048C767.641 149.319 770 144.276 770 139.099C770 134.82 769.584 134.561 764.5 135.667Z" fill="#5D317D"/>
<rect x="8" y="8" width="984" height="224" rx="112" stroke="#5D317D" stroke-width="16"/>
</svg>
