<svg aria-hidden="true" style="position: absolute; width: 0; height: 0; overflow: hidden;" version="1.1" xmlns="http://www.w3.org/2000/svg" xmlns:xlink="http://www.w3.org/1999/xlink">
<defs>
<symbol id="icon-hbs" viewBox="0 0 64 32">
<path fill="#382716" style="fill: var(--color1, #382716)" d="M18.465 17.85c0.752-0.376 1.959-0.811 2.672-0.97s1.722-0.297 2.276-0.297c0.534 0 1.623 0.119 2.375 0.277s1.821 0.515 2.375 0.792c0.534 0.277 1.346 0.831 1.781 1.247 0.455 0.396 1.049 1.049 1.861 2.118l1.168-1.286c0.693-0.772 1.643-1.544 2.335-1.92 0.633-0.356 1.841-0.792 2.652-0.97 1.009-0.218 1.94-0.277 2.87-0.198 0.772 0.059 1.88 0.257 2.474 0.435s1.663 0.633 2.375 1.009c0.712 0.396 1.781 1.088 2.375 1.544s1.979 1.662 3.068 2.652c1.089 1.009 2.415 2.137 2.969 2.513 0.693 0.495 1.286 0.732 1.979 0.811 0.653 0.079 1.227 0.020 1.662-0.158 0.376-0.158 0.891-0.515 1.148-0.831 0.237-0.297 0.455-0.752 0.455-1.029s-0.119-0.732-0.277-1.049c-0.139-0.297-0.416-0.594-0.594-0.693-0.178-0.079-0.475-0.139-0.673-0.139-0.178-0.020-0.495 0.139-0.693 0.336-0.277 0.277-0.336 0.515-0.099 1.742l-0.614-0.594c-0.435-0.416-0.653-0.851-0.732-1.385-0.079-0.554 0-0.99 0.257-1.465 0.198-0.356 0.673-0.831 1.049-1.029 0.455-0.238 1.089-0.376 1.821-0.376 0.633 0 1.484 0.139 1.88 0.317 0.416 0.158 1.009 0.534 1.306 0.831 0.317 0.297 0.732 0.851 0.93 1.227s0.475 1.227 0.614 1.88c0.198 0.97 0.198 1.445 0 2.573-0.139 0.752-0.416 1.722-0.633 2.118-0.198 0.416-0.713 1.108-1.128 1.564-0.396 0.435-1.267 1.069-1.92 1.366-0.653 0.317-1.722 0.693-2.375 0.871s-2.019 0.317-3.028 0.317c-1.247 0-2.454-0.158-3.84-0.475-1.128-0.277-2.652-0.752-3.424-1.069s-2.89-1.267-4.75-2.118c-1.86-0.851-4.295-1.86-5.443-2.236-2.019-0.693-2.157-0.712-5.146-0.712-3.008 0-3.107 0.020-5.146 0.712-1.148 0.396-3.939 1.544-6.234 2.593-2.296 1.029-4.611 2.019-5.146 2.216-0.554 0.178-1.722 0.495-2.613 0.712-0.97 0.218-2.355 0.376-3.384 0.376-1.009 0-2.296-0.158-3.107-0.356-0.752-0.198-1.959-0.673-2.652-1.049s-1.564-1.029-1.94-1.465c-0.376-0.435-0.851-1.286-1.069-1.88-0.237-0.594-0.455-1.544-0.515-2.078-0.059-0.614 0.020-1.484 0.218-2.276 0.178-0.712 0.554-1.623 0.811-2.038 0.277-0.396 0.871-0.97 1.326-1.286 0.633-0.416 1.128-0.554 2.118-0.614s1.504 0.020 2.078 0.297c0.435 0.218 0.95 0.633 1.148 0.97 0.198 0.317 0.356 0.831 0.356 1.128 0 0.317-0.119 0.792-0.277 1.088-0.139 0.317-0.416 0.693-0.594 0.851-0.297 0.277-0.336 0.238-0.336-0.297 0-0.336-0.139-0.752-0.336-0.95-0.178-0.198-0.554-0.356-0.831-0.356s-0.653 0.158-0.831 0.356c-0.198 0.198-0.396 0.673-0.455 1.049-0.079 0.495 0 0.871 0.297 1.326 0.218 0.356 0.732 0.792 1.148 0.97 0.435 0.198 1.089 0.297 1.643 0.257 0.614-0.059 1.227-0.297 1.979-0.792 0.594-0.396 1.959-1.544 3.048-2.533 1.088-1.009 2.553-2.276 3.266-2.81s1.92-1.286 2.672-1.662z"></path>
<path fill="#ff3b00" style="fill: var(--color2, #ff3b00)" d="M4.070 0c0.178 0 0.475 0.158 0.673 0.356 0.257 0.237 0.356 0.633 0.336 1.484 0 1.069 0.020 1.108 0.396 0.93 0.218-0.119 0.752-0.198 1.188-0.198 0.614 0 0.93 0.139 1.979 1.187v2.434c0 1.623-0.079 2.494-0.238 2.652-0.139 0.139-0.416 0.257-0.633 0.257-0.237 0-0.534-0.099-0.673-0.238-0.158-0.178-0.237-0.831-0.237-1.939 0-1.168-0.079-1.821-0.297-2.137-0.158-0.237-0.416-0.435-0.574-0.435s-0.435 0.139-0.594 0.297c-0.237 0.218-0.317 0.712-0.317 2.078s-0.079 1.86-0.317 2.078c-0.158 0.158-0.515 0.297-0.792 0.297s-0.554-0.158-0.673-0.396c-0.119-0.218-0.218-2.098-0.237-4.196-0.020-3.424 0-3.82 0.336-4.156 0.198-0.198 0.495-0.356 0.673-0.356v0zM27.465 0c0.198 0 0.515 0.139 0.673 0.297 0.238 0.237 0.297 0.99 0.297 4.215 0 2.79-0.059 3.978-0.238 4.136-0.139 0.139-0.495 0.257-0.792 0.257s-0.594-0.079-0.653-0.198c-0.066-0.132-0.231-0.132-0.495 0-0.218 0.119-0.712 0.198-1.088 0.198s-0.97-0.139-1.287-0.297c-0.336-0.158-0.792-0.633-1.029-1.049-0.317-0.515-0.455-1.029-0.435-1.821 0-0.633 0.139-1.366 0.336-1.742 0.178-0.336 0.633-0.811 0.97-1.029 0.356-0.218 1.009-0.396 1.445-0.396s0.91 0.099 1.049 0.237c0.198 0.218 0.238 0.020 0.218-0.97 0-0.891 0.079-1.306 0.317-1.524 0.178-0.178 0.495-0.317 0.712-0.317v0zM24.258 5.66c0.020 0.158 0.139 0.495 0.257 0.772 0.139 0.277 0.416 0.554 0.594 0.594 0.198 0.059 0.574-0.040 0.851-0.198 0.396-0.237 0.495-0.455 0.495-1.088 0-0.594-0.099-0.871-0.455-1.088-0.238-0.158-0.534-0.297-0.673-0.297-0.119 0-0.416 0.237-0.653 0.515-0.238 0.297-0.435 0.653-0.416 0.792zM30.255 0c0.356 0 0.633 0.139 0.752 0.396 0.119 0.218 0.198 2.019 0.198 4.116 0 3.226-0.059 3.74-0.356 4.057-0.178 0.198-0.495 0.356-0.693 0.336-0.178 0-0.475-0.139-0.633-0.297-0.238-0.238-0.297-1.029-0.336-4.215-0.040-3.147 0.020-3.958 0.238-4.156 0.158-0.139 0.534-0.237 0.831-0.237zM39.36 0c0.356 0 0.633 0.139 0.752 0.396 0.119 0.218 0.198 0.851 0.198 1.385 0 0.93 0.020 0.99 0.435 0.851 0.257-0.079 0.772-0.139 1.148-0.119s0.91 0.218 1.188 0.416c0.277 0.218 0.673 0.673 0.891 1.049 0.257 0.455 0.396 1.029 0.396 1.761 0 0.772-0.139 1.306-0.455 1.841-0.237 0.396-0.712 0.871-1.029 1.029s-0.891 0.297-1.247 0.297c-0.336 0-0.831-0.139-1.089-0.297-0.396-0.257-0.455-0.257-0.693 0-0.119 0.178-0.396 0.317-0.594 0.297-0.178 0-0.475-0.139-0.633-0.297-0.237-0.238-0.297-1.029-0.336-4.215-0.040-3.147 0.020-3.958 0.238-4.156 0.158-0.139 0.534-0.237 0.831-0.237v0zM40.27 5.759c0.020 0.376 0.178 0.831 0.376 1.009 0.198 0.198 0.534 0.356 0.752 0.356 0.218 0.020 0.534-0.139 0.693-0.317s0.297-0.673 0.297-1.069c0-0.396-0.139-0.891-0.297-1.069s-0.475-0.336-0.712-0.317c-0.237 0-0.574 0.158-0.772 0.356-0.237 0.237-0.356 0.614-0.336 1.049v0zM55.253 2.672c0.237 0.158 0.396 0.455 0.396 0.792 0 0.297-0.139 0.614-0.297 0.712-0.158 0.079-0.574 0.277-0.891 0.416-0.594 0.257-0.594 0.277-0.693 2.098-0.079 1.326-0.178 1.88-0.396 2.019-0.158 0.099-0.455 0.198-0.653 0.198-0.178 0-0.475-0.139-0.633-0.297-0.237-0.238-0.297-0.851-0.297-2.909 0-1.801 0.079-2.711 0.238-2.87 0.139-0.139 0.495-0.257 0.792-0.257s0.614 0.139 0.693 0.297c0.139 0.257 0.198 0.257 0.455 0.020 0.158-0.139 0.435-0.317 0.594-0.356 0.158-0.059 0.475 0 0.693 0.139v0zM12.047 2.573c0.416 0 0.93 0.079 1.148 0.198 0.264 0.132 0.429 0.132 0.495 0 0.059-0.119 0.336-0.198 0.653-0.198 0.297 0 0.653 0.099 0.792 0.237 0.178 0.178 0.238 1.009 0.238 2.83 0 1.761-0.079 2.652-0.238 2.83-0.139 0.119-0.455 0.237-0.752 0.237-0.277 0-0.574-0.079-0.693-0.198-0.139-0.158-0.297-0.119-0.495 0.099-0.178 0.198-0.614 0.317-1.088 0.297-0.435 0-1.049-0.158-1.386-0.356s-0.772-0.712-0.97-1.148c-0.238-0.455-0.396-1.168-0.376-1.761 0-0.554 0.139-1.286 0.336-1.643 0.178-0.336 0.614-0.811 0.95-1.029 0.356-0.218 0.99-0.396 1.405-0.396h-0.020zM11.176 5.66c0.020 0.158 0.139 0.495 0.277 0.772 0.119 0.277 0.396 0.554 0.594 0.594 0.178 0.059 0.554-0.040 0.831-0.198 0.396-0.237 0.495-0.455 0.495-1.088 0-0.594-0.099-0.871-0.435-1.088-0.257-0.158-0.554-0.297-0.693-0.297-0.119 0-0.416 0.237-0.653 0.515-0.238 0.297-0.435 0.653-0.416 0.792zM17.133 2.573c0.336 0 0.633 0.079 0.693 0.198 0.066 0.132 0.231 0.132 0.495 0 0.218-0.119 0.772-0.198 1.247-0.198 0.534-0.020 1.029 0.119 1.366 0.396 0.317 0.218 0.633 0.712 0.752 1.148 0.099 0.396 0.198 1.484 0.198 2.414 0 1.168-0.079 1.821-0.297 2.137-0.158 0.238-0.495 0.435-0.752 0.435-0.238 0-0.554-0.099-0.693-0.238-0.158-0.178-0.238-0.831-0.238-1.939 0.020-1.366-0.059-1.781-0.356-2.177-0.356-0.455-0.435-0.475-0.91-0.237-0.495 0.237-0.515 0.277-0.515 2.118 0 1.445-0.079 1.939-0.317 2.177-0.158 0.158-0.475 0.297-0.693 0.297-0.198 0-0.515-0.139-0.673-0.297-0.238-0.238-0.297-0.871-0.317-2.889 0-1.563 0.079-2.731 0.198-2.969 0.139-0.237 0.435-0.376 0.811-0.376v0zM34.689 2.573c0.475 0 1.128 0.139 1.445 0.297s0.772 0.534 0.97 0.851c0.218 0.297 0.435 0.792 0.515 1.128s0.079 0.792 0.020 1.049c-0.119 0.416-0.237 0.435-3.978 0.534l0.574 0.396c0.554 0.396 0.574 0.396 1.583 0.020 0.554-0.198 1.168-0.317 1.346-0.237 0.257 0.079 0.336 0.297 0.297 0.752-0.020 0.416-0.218 0.752-0.594 1.029s-0.95 0.435-1.682 0.475c-0.811 0.059-1.346-0.020-1.9-0.297-0.416-0.198-0.95-0.673-1.168-1.049-0.277-0.462-0.416-1.022-0.416-1.682 0-0.633 0.139-1.247 0.396-1.682 0.218-0.376 0.693-0.891 1.069-1.128 0.435-0.297 0.97-0.455 1.524-0.455v0zM34.689 4.948c0.574 0 1.049-0.040 1.049-0.099s-0.139-0.237-0.297-0.396c-0.158-0.158-0.455-0.297-0.673-0.297-0.198 0-0.534 0.178-0.732 0.396-0.376 0.416-0.376 0.416 0.653 0.396v0zM47.652 2.573c0.416 0 0.93 0.079 1.148 0.198 0.264 0.132 0.429 0.132 0.495 0 0.059-0.119 0.336-0.198 0.633-0.198 0.317 0 0.673 0.099 0.811 0.237 0.178 0.178 0.237 1.009 0.237 2.83 0 1.761-0.079 2.652-0.237 2.83-0.139 0.119-0.455 0.237-0.752 0.237-0.277 0-0.574-0.079-0.693-0.198-0.139-0.158-0.297-0.119-0.495 0.099-0.178 0.198-0.614 0.317-1.089 0.297-0.435 0-1.069-0.158-1.386-0.356s-0.772-0.712-0.97-1.148c-0.237-0.455-0.396-1.168-0.376-1.761 0-0.554 0.139-1.286 0.336-1.643 0.178-0.336 0.614-0.811 0.95-1.029 0.356-0.218 0.99-0.396 1.385-0.396v0zM46.801 5.66c0.020 0.158 0.139 0.495 0.257 0.772 0.139 0.277 0.416 0.554 0.594 0.594 0.198 0.059 0.574-0.040 0.851-0.198 0.396-0.237 0.495-0.455 0.495-1.088 0-0.594-0.099-0.871-0.455-1.088-0.237-0.158-0.534-0.297-0.673-0.297-0.119 0-0.416 0.237-0.653 0.515-0.237 0.297-0.435 0.653-0.416 0.792zM58.498 2.573c0.614 0 1.069 0.119 1.425 0.396 0.317 0.218 0.554 0.574 0.554 0.792s-0.040 0.534-0.099 0.693c-0.059 0.158-0.317 0.297-0.594 0.297s-0.732-0.099-1.049-0.198c-0.336-0.139-0.614-0.139-0.732-0.020s0.158 0.336 0.792 0.614c0.534 0.237 1.188 0.614 1.445 0.851 0.237 0.237 0.435 0.633 0.435 0.891 0 0.237-0.119 0.653-0.257 0.93-0.119 0.277-0.515 0.653-0.831 0.811-0.396 0.224-0.937 0.31-1.623 0.257-0.732-0.059-1.148-0.218-1.524-0.574-0.297-0.277-0.534-0.673-0.534-0.891s0.139-0.534 0.317-0.693c0.297-0.257 0.435-0.257 1.247 0.059 0.515 0.178 0.99 0.336 1.069 0.336 0.099 0 0.158-0.119 0.158-0.237 0.020-0.139-0.416-0.435-0.93-0.653-0.515-0.198-1.108-0.534-1.306-0.732-0.178-0.198-0.336-0.653-0.336-0.99 0-0.356 0.139-0.851 0.317-1.108s0.515-0.534 0.752-0.633c0.218-0.099 0.811-0.178 1.306-0.198v0z"></path>
</symbol>
</defs>
</svg>
