<svg aria-hidden="true" style="position: absolute; width: 0; height: 0; overflow: hidden;" version="1.1" xmlns="http://www.w3.org/2000/svg" xmlns:xlink="http://www.w3.org/1999/xlink">
<defs>
<symbol id="icon-npm" viewBox="0 0 82 32">
<path d="M0 13.639v13.639h23.082v4.721h17.836v-4.721h41.443v-27.279h-82.361v13.639zM22.963 13.771l0.143 9.311h-5.27v-13.639h-4.197v13.639h-9.443v-18.909l18.623 0.286 0.143 9.311zM45.902 13.639v9.18l-9.18 0.303v4.68h-9.443v-23.631l18.623 0.286v9.18zM78.164 13.668v9.471l-4.984-0.32-0.103-4.459c-0.057-2.452-0.116-5.463-0.131-6.689l-0.028-2.229h-4.197v13.639h-4.721v-13.639h-4.197v13.639h-9.443v-18.885h27.803v9.471zM36.721 13.902v4.459h4.197v-8.918h-4.197v4.459z"></path>
</symbol>

<symbol id="icon-parcel" viewBox="0 0 157 32">
<path fill="#22ad12" d="M87.069 0.213c-1.417 0.452-2.762 1.587-3.426 2.894-0.591 1.162-0.626 1.905-0.626 12.95v11.717l0.907 1.437c1.516 2.399 2.362 2.645 9.464 2.766 7.202 0.123 8.918-0.204 10.49-2.002 1.269-1.451 1.632-2.881 1.633-6.45l0.002-2.941h-6.337v2.204c0 3.147-0.087 3.202-5.029 3.202-2.714 0-4.157-0.124-4.413-0.381-0.279-0.279-0.38-2.904-0.38-9.825 0-8.317 0.060-9.466 0.501-9.636 0.276-0.107 2.338-0.193 4.583-0.193 4.777 0 4.738-0.027 4.738 3.318v2.089h6.417l-0.14-3.578c-0.142-3.628-0.392-4.529-1.643-5.914-1.508-1.671-2.095-1.788-9.228-1.862-3.659-0.038-7.040 0.055-7.512 0.205zM0 15.959v15.756h6.337v-11.131h5.762c6.69 0 7.867-0.331 9.389-2.638 0.848-1.286 0.851-1.307 0.851-7.356 0-6.957-0.24-7.865-2.481-9.354l-1.273-0.846-18.584-0.186v15.755zM28.007 15.893l-5.066 15.664 3.158 0.091c2.041 0.059 3.235-0.032 3.373-0.257 0.118-0.192 0.618-1.771 1.111-3.51l0.895-3.162h10.32l0.964 3.136c0.53 1.724 0.964 3.299 0.964 3.498 0 0.249 1.097 0.363 3.519 0.363 2.684 0 3.483-0.095 3.369-0.398-0.083-0.218-1.818-5.55-3.854-11.846s-4.278-13.202-4.979-15.345l-1.276-3.897h-7.43l-5.067 15.663zM54.816 15.972v15.742h6.323l0.086-5.804 0.087-5.804h5.070l5.070 11.591 3.433 0.008c1.888 0.005 3.385-0.11 3.327-0.255s-1.238-2.818-2.623-5.942c-1.569-3.54-2.38-5.725-2.154-5.801 1.119-0.375 2.542-1.692 3.166-2.931 0.655-1.301 0.713-1.845 0.706-6.676-0.009-6.756-0.522-8.108-3.559-9.382-0.955-0.4-2.772-0.489-10.048-0.489h-8.882v15.742zM111.216 15.972v15.742h20.596v-6.042h-14.259v-6.983l11.566-0.173 0.091-2.942 0.091-2.941h-11.748v-6.362h14.259v-6.042h-20.596v15.742zM137.515 15.972v15.742h19.645v-6.042h-13.308v-25.442h-6.337v15.742zM100.215 2.89c1.708 0.725 2.244 1.597 2.389 3.878 0.109 1.728 0.050 2.049-0.383 2.049-0.41 0-0.512-0.352-0.512-1.774 0-1.545-0.122-1.896-0.946-2.723l-0.946-0.949-5.858 0.1c-5.609 0.095-5.89 0.129-6.579 0.824l-0.721 0.725v21.908l0.721 0.725c0.69 0.693 0.971 0.728 6.579 0.823l5.858 0.1 0.946-0.949c0.824-0.827 0.946-1.178 0.946-2.724 0-1.421 0.102-1.773 0.512-1.773 0.432 0 0.492 0.32 0.383 2.049-0.238 3.752-1.35 4.312-8.568 4.311-5.898 0-6.974-0.302-7.931-2.226-0.493-0.99-0.554-2.237-0.554-11.29s0.061-10.299 0.554-11.29c0.957-1.923 2.033-2.225 7.931-2.226 3.644 0 5.458 0.127 6.178 0.433zM17.754 3.257c1.633 0.848 1.891 1.821 1.891 7.15 0 5.156-0.261 6.261-1.667 7.066-0.489 0.281-2.83 0.457-7.522 0.566l-6.813 0.159-0.087 5.486c-0.052 3.297-0.21 5.486-0.396 5.486-0.196 0-0.309-4.824-0.309-13.199v-13.198h6.987c5.625 0 7.167 0.094 7.916 0.482zM42.736 15.416c2.131 6.953 3.947 12.891 4.037 13.198 0.104 0.351-0.007 0.557-0.299 0.557-0.254 0-0.558-0.394-0.675-0.875s-0.569-2.055-1.004-3.499l-0.791-2.623h-14.488l-1.003 3.26c-0.983 3.198-1.387 4.038-1.756 3.667-0.102-0.102 1.643-6.065 3.876-13.25l4.062-13.065 4.166-0.011 3.874 12.642zM72.529 3.177c1.7 0.877 2.052 1.847 2.189 6.042 0.077 2.319-0.016 4.428-0.229 5.22-0.499 1.855-1.885 2.965-3.697 2.965-0.771 0-1.401 0.135-1.401 0.299 0 0.166 1.069 2.749 2.376 5.743s2.377 5.506 2.377 5.584c0 0.078-0.184 0.141-0.41 0.141-0.227 0-1.54-2.587-2.947-5.804l-2.537-5.804-9.632-0.175v5.892c0 5.025-0.070 5.892-0.475 5.892-0.415 0-0.475-1.678-0.475-13.199v-13.198l7.050 0.005c4.964 0.003 7.275 0.121 7.812 0.398zM129.197 3.172c-0.099 0.299-1.912 0.419-7.314 0.484l-7.182 0.085v11.436h5.862c4.999 0 5.862 0.071 5.862 0.477s-0.863 0.476-5.862 0.476h-5.862v12.074l7.182 0.085c5.402 0.064 7.215 0.185 7.314 0.484 0.103 0.31-1.567 0.398-7.657 0.398h-7.789v-26.396h7.789c6.091 0 7.761 0.087 7.657 0.398zM141 15.496v12.721h6.654c5.741 0 6.654 0.066 6.654 0.484 0 0.42-0.91 0.471-6.978 0.397l-6.978-0.085 0.004-12.96c0.002-7.128 0.006-13.031 0.008-13.118s0.147-0.159 0.321-0.159c0.206 0 0.316 4.452 0.316 12.721zM3.485 10.407v6.679h6.475c3.561 0 6.833-0.137 7.268-0.303 1.199-0.458 1.555-1.459 1.717-4.829 0.204-4.247-0.119-6.532-1.057-7.474-0.742-0.745-0.82-0.752-7.576-0.752h-6.828v6.678zM32.952 11.122c2.962-11.088 2.030-8.176 1.106-5.261l-3.834 14.007-0.409 1.351h6.946c5.415 0 6.916-0.087 6.815-0.398-0.071-0.218-0.709-2.293-1.415-4.611-0.708-2.318-1.862-6.074-2.567-8.349l-1.281-4.134h-3.041l-2.318 7.394zM58.618 10.248v6.52h6.1c8.818-0.001 9.097-0.199 9.105-6.45 0.005-4.025-0.389-5.631-1.532-6.245-0.399-0.214-3.094-0.343-7.156-0.343h-6.517v6.52zM15.78 6.654c0.521 0.523 0.521 6.982 0 7.505-0.26 0.261-1.809 0.382-4.911 0.382h-4.533v-8.27h4.531c3.102 0 4.651 0.121 4.911 0.382zM70.908 9.884c0.059 2.273-0.036 3.604-0.277 3.896-0.282 0.341-1.412 0.444-4.921 0.444h-4.556v-7.968l9.664 0.176 0.090 3.452zM38.464 12.961c0.853 2.976 1.478 5.485 1.388 5.575s-1.587 0.122-3.328 0.071l-3.166-0.090 1.619-5.484c0.891-3.016 1.691-5.484 1.778-5.483s0.856 2.436 1.709 5.412z"></path>
</symbol>

<symbol id="icon-webpack" viewBox="0 0 96 32">
<path fill="#fff" style="fill: var(--color1, #fff)" d="M0 0h96v32h-96v-32z"></path>
<path   d="M-12 16v40h120v-80h-120v40zM24.737 7.901l4.623 2.621v10.956l-4.623 2.621c-2.542 1.441-4.684 2.621-4.758 2.621s-2.261-1.202-4.858-2.67l-4.722-2.67v-10.76l4.68-2.66c2.574-1.463 4.76-2.664 4.857-2.67s2.258 1.169 4.8 2.611zM52.64 11.498v1.578l0.747-0.378c1.523-0.771 3.2-0.246 4.072 1.276 0.316 0.551 0.381 0.887 0.379 1.946-0.003 1.556-0.391 2.419-1.379 3.073-0.914 0.605-2.441 0.71-3.263 0.225-0.683-0.403-0.715-0.408-0.715-0.098 0 0.181-0.195 0.24-0.795 0.24h-0.795l-0.045-4.72-0.045-4.72 1.84 0v1.578zM81.156 12.6l0.044 2.68 2.187-2.8h0.947c0.521 0 0.947 0.038 0.947 0.085s-0.511 0.732-1.136 1.524c-0.675 0.855-1.099 1.534-1.046 1.672 0.049 0.128 0.596 0.956 1.216 1.841s1.126 1.643 1.126 1.684-0.462 0.074-1.026 0.074h-1.026l-2.187-3.433-0.091 3.433h-1.749v-9.44h1.752l0.044 2.68zM17.611 11.765c-1.182 0.66-2.175 1.226-2.206 1.257-0.062 0.062 4.37 2.658 4.537 2.658 0.124 0 3.861-2.135 4.284-2.447 0.282-0.208 0.143-0.314-1.796-1.383-1.156-0.637-2.229-1.187-2.385-1.221s-1.251 0.476-2.433 1.136zM47.856 12.504c1.307 0.443 2.020 1.411 2.18 2.956l0.089 0.86h-2.347c-1.944 0-2.363 0.041-2.44 0.241-0.14 0.365 0.379 1.037 1.001 1.297 0.624 0.261 1.628 0.089 1.983-0.339 0.274-0.331 0.446-0.302 1.076 0.178l0.547 0.417-0.372 0.404c-0.862 0.937-2.802 1.294-4.097 0.754-1.885-0.786-2.655-3.193-1.65-5.162 0.733-1.437 2.479-2.132 4.031-1.605zM63.404 12.49c0.787 0.218 1.691 1.022 2.057 1.829 0.327 0.72 0.386 2.081 0.129 3.006-0.209 0.752-1.019 1.694-1.703 1.98-0.779 0.325-2.11 0.274-2.732-0.104-0.288-0.176-0.558-0.319-0.6-0.319s-0.076 0.684-0.076 1.52v1.52h-1.76v-9.44h0.8c0.693 0 0.8 0.043 0.8 0.32 0 0.346 0.234 0.428 0.41 0.144 0.165-0.267 1.051-0.611 1.59-0.617 0.264-0.003 0.752 0.070 1.084 0.162zM71 12.722c0.949 0.561 1.074 0.999 1.133 3.958l0.054 2.68h-0.804c-0.442 0-0.845-0.067-0.896-0.149-0.053-0.087-0.276-0.053-0.529 0.079-0.517 0.27-1.751 0.3-2.387 0.059-1.611-0.61-1.937-2.748-0.578-3.785 0.51-0.389 0.723-0.444 1.715-0.444 0.623 0 1.241 0.036 1.373 0.080 0.368 0.123 0.228-0.662-0.179-1-0.412-0.343-1.389-0.364-2.147-0.048l-0.556 0.232-0.639-1.253 0.36-0.194c1.224-0.658 3.159-0.76 4.080-0.216zM78.068 12.714c0.547 0.283 0.563 0.415 0.175 1.436l-0.154 0.405-0.572-0.338c-0.675-0.398-1.666-0.34-2.192 0.129-0.383 0.341-0.765 1.173-0.765 1.664 0 0.573 0.498 1.43 0.974 1.676 0.568 0.294 1.546 0.291 2.066-0.007 0.22-0.126 0.443-0.231 0.495-0.234 0.159-0.009 0.487 1.269 0.373 1.454-0.387 0.626-2.577 0.818-3.669 0.322-2.788-1.267-2.589-5.583 0.307-6.654 0.805-0.297 2.242-0.227 2.963 0.146zM35.028 14.84c0.308 1.254 0.607 2.28 0.664 2.28s0.376-1.044 0.71-2.32l0.607-2.32h1.688l0.238 0.84c0.131 0.462 0.398 1.452 0.593 2.2s0.407 1.418 0.471 1.49 0.31-0.649 0.547-1.6c0.236-0.951 0.501-2 0.588-2.33l0.158-0.6h0.966c0.737 0 0.953 0.052 0.914 0.22-0.028 0.121-0.484 1.668-1.012 3.439l-0.96 3.22-2.081 0.002-0.543-1.96c-0.298-1.078-0.592-2.016-0.652-2.085s-0.387 0.816-0.725 1.967l-0.615 2.092-2.072-0.093-0.756-2.56c-0.416-1.408-0.871-2.941-1.010-3.408l-0.254-0.847 1.975 0.095 0.561 2.28zM15.040 16.23v2.47l2.040 1.122c1.122 0.617 2.168 1.17 2.324 1.229 0.266 0.1 0.281-0.052 0.24-2.328l-0.044-2.435-2.16-1.26c-1.188-0.693-2.214-1.262-2.28-1.264s-0.12 1.107-0.12 2.466zM22.444 15.014l-2.116 1.226-0.004 2.44c-0.002 1.342 0.034 2.44 0.081 2.44s1.091-0.554 2.32-1.231l2.235-1.231v-2.449c0-1.86-0.048-2.445-0.2-2.435-0.11 0.008-1.152 0.566-2.316 1.24zM46.098 13.977c-0.349 0.2-0.798 0.809-0.812 1.103-0.003 0.066 0.672 0.12 1.499 0.12 1.404 0 1.5-0.021 1.425-0.306-0.21-0.805-1.403-1.322-2.112-0.917zM53.297 14.33c-0.623 0.524-0.868 1.366-0.643 2.203 0.252 0.936 0.784 1.387 1.637 1.387 0.89 0 1.475-0.436 1.73-1.289 0.553-1.846-1.352-3.456-2.724-2.301zM61.502 14.077c-0.186 0.075-0.492 0.332-0.68 0.572-0.63 0.801-0.359 2.674 0.449 3.107 0.465 0.249 1.491 0.198 1.91-0.096 0.205-0.144 0.473-0.501 0.596-0.795 0.725-1.734-0.665-3.438-2.275-2.787zM68.265 16.613c-0.501 0.554-0.299 1.219 0.446 1.464 1.075 0.355 2.017-0.512 1.468-1.351-0.217-0.332-0.394-0.407-0.958-0.407-0.467 0-0.778 0.095-0.956 0.293z"></path>
</symbol>

<symbol id="icon-hbs" viewBox="0 0 64 32">
<path fill="#382716" style="fill: var(--color1, #382716)" d="M18.465 17.85c0.752-0.376 1.959-0.811 2.672-0.97s1.722-0.297 2.276-0.297c0.534 0 1.623 0.119 2.375 0.277s1.821 0.515 2.375 0.792c0.534 0.277 1.346 0.831 1.781 1.247 0.455 0.396 1.049 1.049 1.861 2.118l1.168-1.286c0.693-0.772 1.643-1.544 2.335-1.92 0.633-0.356 1.841-0.792 2.652-0.97 1.009-0.218 1.94-0.277 2.87-0.198 0.772 0.059 1.88 0.257 2.474 0.435s1.663 0.633 2.375 1.009c0.712 0.396 1.781 1.088 2.375 1.544s1.979 1.662 3.068 2.652c1.089 1.009 2.415 2.137 2.969 2.513 0.693 0.495 1.286 0.732 1.979 0.811 0.653 0.079 1.227 0.020 1.662-0.158 0.376-0.158 0.891-0.515 1.148-0.831 0.237-0.297 0.455-0.752 0.455-1.029s-0.119-0.732-0.277-1.049c-0.139-0.297-0.416-0.594-0.594-0.693-0.178-0.079-0.475-0.139-0.673-0.139-0.178-0.020-0.495 0.139-0.693 0.336-0.277 0.277-0.336 0.515-0.099 1.742l-0.614-0.594c-0.435-0.416-0.653-0.851-0.732-1.385-0.079-0.554 0-0.99 0.257-1.465 0.198-0.356 0.673-0.831 1.049-1.029 0.455-0.238 1.089-0.376 1.821-0.376 0.633 0 1.484 0.139 1.88 0.317 0.416 0.158 1.009 0.534 1.306 0.831 0.317 0.297 0.732 0.851 0.93 1.227s0.475 1.227 0.614 1.88c0.198 0.97 0.198 1.445 0 2.573-0.139 0.752-0.416 1.722-0.633 2.118-0.198 0.416-0.713 1.108-1.128 1.564-0.396 0.435-1.267 1.069-1.92 1.366-0.653 0.317-1.722 0.693-2.375 0.871s-2.019 0.317-3.028 0.317c-1.247 0-2.454-0.158-3.84-0.475-1.128-0.277-2.652-0.752-3.424-1.069s-2.89-1.267-4.75-2.118c-1.86-0.851-4.295-1.86-5.443-2.236-2.019-0.693-2.157-0.712-5.146-0.712-3.008 0-3.107 0.020-5.146 0.712-1.148 0.396-3.939 1.544-6.234 2.593-2.296 1.029-4.611 2.019-5.146 2.216-0.554 0.178-1.722 0.495-2.613 0.712-0.97 0.218-2.355 0.376-3.384 0.376-1.009 0-2.296-0.158-3.107-0.356-0.752-0.198-1.959-0.673-2.652-1.049s-1.564-1.029-1.94-1.465c-0.376-0.435-0.851-1.286-1.069-1.88-0.237-0.594-0.455-1.544-0.515-2.078-0.059-0.614 0.020-1.484 0.218-2.276 0.178-0.712 0.554-1.623 0.811-2.038 0.277-0.396 0.871-0.97 1.326-1.286 0.633-0.416 1.128-0.554 2.118-0.614s1.504 0.020 2.078 0.297c0.435 0.218 0.95 0.633 1.148 0.97 0.198 0.317 0.356 0.831 0.356 1.128 0 0.317-0.119 0.792-0.277 1.088-0.139 0.317-0.416 0.693-0.594 0.851-0.297 0.277-0.336 0.238-0.336-0.297 0-0.336-0.139-0.752-0.336-0.95-0.178-0.198-0.554-0.356-0.831-0.356s-0.653 0.158-0.831 0.356c-0.198 0.198-0.396 0.673-0.455 1.049-0.079 0.495 0 0.871 0.297 1.326 0.218 0.356 0.732 0.792 1.148 0.97 0.435 0.198 1.089 0.297 1.643 0.257 0.614-0.059 1.227-0.297 1.979-0.792 0.594-0.396 1.959-1.544 3.048-2.533 1.088-1.009 2.553-2.276 3.266-2.81s1.92-1.286 2.672-1.662z"></path>
<path fill="#ff3b00" style="fill: var(--color2, #ff3b00)" d="M4.070 0c0.178 0 0.475 0.158 0.673 0.356 0.257 0.237 0.356 0.633 0.336 1.484 0 1.069 0.020 1.108 0.396 0.93 0.218-0.119 0.752-0.198 1.188-0.198 0.614 0 0.93 0.139 1.979 1.187v2.434c0 1.623-0.079 2.494-0.238 2.652-0.139 0.139-0.416 0.257-0.633 0.257-0.237 0-0.534-0.099-0.673-0.238-0.158-0.178-0.237-0.831-0.237-1.939 0-1.168-0.079-1.821-0.297-2.137-0.158-0.237-0.416-0.435-0.574-0.435s-0.435 0.139-0.594 0.297c-0.237 0.218-0.317 0.712-0.317 2.078s-0.079 1.86-0.317 2.078c-0.158 0.158-0.515 0.297-0.792 0.297s-0.554-0.158-0.673-0.396c-0.119-0.218-0.218-2.098-0.237-4.196-0.020-3.424 0-3.82 0.336-4.156 0.198-0.198 0.495-0.356 0.673-0.356v0zM27.465 0c0.198 0 0.515 0.139 0.673 0.297 0.238 0.237 0.297 0.99 0.297 4.215 0 2.79-0.059 3.978-0.238 4.136-0.139 0.139-0.495 0.257-0.792 0.257s-0.594-0.079-0.653-0.198c-0.066-0.132-0.231-0.132-0.495 0-0.218 0.119-0.712 0.198-1.088 0.198s-0.97-0.139-1.287-0.297c-0.336-0.158-0.792-0.633-1.029-1.049-0.317-0.515-0.455-1.029-0.435-1.821 0-0.633 0.139-1.366 0.336-1.742 0.178-0.336 0.633-0.811 0.97-1.029 0.356-0.218 1.009-0.396 1.445-0.396s0.91 0.099 1.049 0.237c0.198 0.218 0.238 0.020 0.218-0.97 0-0.891 0.079-1.306 0.317-1.524 0.178-0.178 0.495-0.317 0.712-0.317v0zM24.258 5.66c0.020 0.158 0.139 0.495 0.257 0.772 0.139 0.277 0.416 0.554 0.594 0.594 0.198 0.059 0.574-0.040 0.851-0.198 0.396-0.237 0.495-0.455 0.495-1.088 0-0.594-0.099-0.871-0.455-1.088-0.238-0.158-0.534-0.297-0.673-0.297-0.119 0-0.416 0.237-0.653 0.515-0.238 0.297-0.435 0.653-0.416 0.792zM30.255 0c0.356 0 0.633 0.139 0.752 0.396 0.119 0.218 0.198 2.019 0.198 4.116 0 3.226-0.059 3.74-0.356 4.057-0.178 0.198-0.495 0.356-0.693 0.336-0.178 0-0.475-0.139-0.633-0.297-0.238-0.238-0.297-1.029-0.336-4.215-0.040-3.147 0.020-3.958 0.238-4.156 0.158-0.139 0.534-0.237 0.831-0.237zM39.36 0c0.356 0 0.633 0.139 0.752 0.396 0.119 0.218 0.198 0.851 0.198 1.385 0 0.93 0.020 0.99 0.435 0.851 0.257-0.079 0.772-0.139 1.148-0.119s0.91 0.218 1.188 0.416c0.277 0.218 0.673 0.673 0.891 1.049 0.257 0.455 0.396 1.029 0.396 1.761 0 0.772-0.139 1.306-0.455 1.841-0.237 0.396-0.712 0.871-1.029 1.029s-0.891 0.297-1.247 0.297c-0.336 0-0.831-0.139-1.089-0.297-0.396-0.257-0.455-0.257-0.693 0-0.119 0.178-0.396 0.317-0.594 0.297-0.178 0-0.475-0.139-0.633-0.297-0.237-0.238-0.297-1.029-0.336-4.215-0.040-3.147 0.020-3.958 0.238-4.156 0.158-0.139 0.534-0.237 0.831-0.237v0zM40.27 5.759c0.020 0.376 0.178 0.831 0.376 1.009 0.198 0.198 0.534 0.356 0.752 0.356 0.218 0.020 0.534-0.139 0.693-0.317s0.297-0.673 0.297-1.069c0-0.396-0.139-0.891-0.297-1.069s-0.475-0.336-0.712-0.317c-0.237 0-0.574 0.158-0.772 0.356-0.237 0.237-0.356 0.614-0.336 1.049v0zM55.253 2.672c0.237 0.158 0.396 0.455 0.396 0.792 0 0.297-0.139 0.614-0.297 0.712-0.158 0.079-0.574 0.277-0.891 0.416-0.594 0.257-0.594 0.277-0.693 2.098-0.079 1.326-0.178 1.88-0.396 2.019-0.158 0.099-0.455 0.198-0.653 0.198-0.178 0-0.475-0.139-0.633-0.297-0.237-0.238-0.297-0.851-0.297-2.909 0-1.801 0.079-2.711 0.238-2.87 0.139-0.139 0.495-0.257 0.792-0.257s0.614 0.139 0.693 0.297c0.139 0.257 0.198 0.257 0.455 0.020 0.158-0.139 0.435-0.317 0.594-0.356 0.158-0.059 0.475 0 0.693 0.139v0zM12.047 2.573c0.416 0 0.93 0.079 1.148 0.198 0.264 0.132 0.429 0.132 0.495 0 0.059-0.119 0.336-0.198 0.653-0.198 0.297 0 0.653 0.099 0.792 0.237 0.178 0.178 0.238 1.009 0.238 2.83 0 1.761-0.079 2.652-0.238 2.83-0.139 0.119-0.455 0.237-0.752 0.237-0.277 0-0.574-0.079-0.693-0.198-0.139-0.158-0.297-0.119-0.495 0.099-0.178 0.198-0.614 0.317-1.088 0.297-0.435 0-1.049-0.158-1.386-0.356s-0.772-0.712-0.97-1.148c-0.238-0.455-0.396-1.168-0.376-1.761 0-0.554 0.139-1.286 0.336-1.643 0.178-0.336 0.614-0.811 0.95-1.029 0.356-0.218 0.99-0.396 1.405-0.396h-0.020zM11.176 5.66c0.020 0.158 0.139 0.495 0.277 0.772 0.119 0.277 0.396 0.554 0.594 0.594 0.178 0.059 0.554-0.040 0.831-0.198 0.396-0.237 0.495-0.455 0.495-1.088 0-0.594-0.099-0.871-0.435-1.088-0.257-0.158-0.554-0.297-0.693-0.297-0.119 0-0.416 0.237-0.653 0.515-0.238 0.297-0.435 0.653-0.416 0.792zM17.133 2.573c0.336 0 0.633 0.079 0.693 0.198 0.066 0.132 0.231 0.132 0.495 0 0.218-0.119 0.772-0.198 1.247-0.198 0.534-0.020 1.029 0.119 1.366 0.396 0.317 0.218 0.633 0.712 0.752 1.148 0.099 0.396 0.198 1.484 0.198 2.414 0 1.168-0.079 1.821-0.297 2.137-0.158 0.238-0.495 0.435-0.752 0.435-0.238 0-0.554-0.099-0.693-0.238-0.158-0.178-0.238-0.831-0.238-1.939 0.020-1.366-0.059-1.781-0.356-2.177-0.356-0.455-0.435-0.475-0.91-0.237-0.495 0.237-0.515 0.277-0.515 2.118 0 1.445-0.079 1.939-0.317 2.177-0.158 0.158-0.475 0.297-0.693 0.297-0.198 0-0.515-0.139-0.673-0.297-0.238-0.238-0.297-0.871-0.317-2.889 0-1.563 0.079-2.731 0.198-2.969 0.139-0.237 0.435-0.376 0.811-0.376v0zM34.689 2.573c0.475 0 1.128 0.139 1.445 0.297s0.772 0.534 0.97 0.851c0.218 0.297 0.435 0.792 0.515 1.128s0.079 0.792 0.020 1.049c-0.119 0.416-0.237 0.435-3.978 0.534l0.574 0.396c0.554 0.396 0.574 0.396 1.583 0.020 0.554-0.198 1.168-0.317 1.346-0.237 0.257 0.079 0.336 0.297 0.297 0.752-0.020 0.416-0.218 0.752-0.594 1.029s-0.95 0.435-1.682 0.475c-0.811 0.059-1.346-0.020-1.9-0.297-0.416-0.198-0.95-0.673-1.168-1.049-0.277-0.462-0.416-1.022-0.416-1.682 0-0.633 0.139-1.247 0.396-1.682 0.218-0.376 0.693-0.891 1.069-1.128 0.435-0.297 0.97-0.455 1.524-0.455v0zM34.689 4.948c0.574 0 1.049-0.040 1.049-0.099s-0.139-0.237-0.297-0.396c-0.158-0.158-0.455-0.297-0.673-0.297-0.198 0-0.534 0.178-0.732 0.396-0.376 0.416-0.376 0.416 0.653 0.396v0zM47.652 2.573c0.416 0 0.93 0.079 1.148 0.198 0.264 0.132 0.429 0.132 0.495 0 0.059-0.119 0.336-0.198 0.633-0.198 0.317 0 0.673 0.099 0.811 0.237 0.178 0.178 0.237 1.009 0.237 2.83 0 1.761-0.079 2.652-0.237 2.83-0.139 0.119-0.455 0.237-0.752 0.237-0.277 0-0.574-0.079-0.693-0.198-0.139-0.158-0.297-0.119-0.495 0.099-0.178 0.198-0.614 0.317-1.089 0.297-0.435 0-1.069-0.158-1.386-0.356s-0.772-0.712-0.97-1.148c-0.237-0.455-0.396-1.168-0.376-1.761 0-0.554 0.139-1.286 0.336-1.643 0.178-0.336 0.614-0.811 0.95-1.029 0.356-0.218 0.99-0.396 1.385-0.396v0zM46.801 5.66c0.020 0.158 0.139 0.495 0.257 0.772 0.139 0.277 0.416 0.554 0.594 0.594 0.198 0.059 0.574-0.040 0.851-0.198 0.396-0.237 0.495-0.455 0.495-1.088 0-0.594-0.099-0.871-0.455-1.088-0.237-0.158-0.534-0.297-0.673-0.297-0.119 0-0.416 0.237-0.653 0.515-0.237 0.297-0.435 0.653-0.416 0.792zM58.498 2.573c0.614 0 1.069 0.119 1.425 0.396 0.317 0.218 0.554 0.574 0.554 0.792s-0.040 0.534-0.099 0.693c-0.059 0.158-0.317 0.297-0.594 0.297s-0.732-0.099-1.049-0.198c-0.336-0.139-0.614-0.139-0.732-0.020s0.158 0.336 0.792 0.614c0.534 0.237 1.188 0.614 1.445 0.851 0.237 0.237 0.435 0.633 0.435 0.891 0 0.237-0.119 0.653-0.257 0.93-0.119 0.277-0.515 0.653-0.831 0.811-0.396 0.224-0.937 0.31-1.623 0.257-0.732-0.059-1.148-0.218-1.524-0.574-0.297-0.277-0.534-0.673-0.534-0.891s0.139-0.534 0.317-0.693c0.297-0.257 0.435-0.257 1.247 0.059 0.515 0.178 0.99 0.336 1.069 0.336 0.099 0 0.158-0.119 0.158-0.237 0.020-0.139-0.416-0.435-0.93-0.653-0.515-0.198-1.108-0.534-1.306-0.732-0.178-0.198-0.336-0.653-0.336-0.99 0-0.356 0.139-0.851 0.317-1.108s0.515-0.534 0.752-0.633c0.218-0.099 0.811-0.178 1.306-0.198v0z"></path>
</symbol>

<symbol id="icon-lodash" viewBox="0 0 96 32">
<path fill="#fff" style="fill: var(--color1, #fff)" d="M16 0h64c8.837 0 16 7.163 16 16s-7.163 16-16 16h-64c-8.837 0-16-7.163-16-16s7.163-16 16-16z"></path>
<path fill="#000" style="fill: var(--color2, #000)" d="M-13.76 0h123.2v41.92h-123.2v-41.92z"></path>
</symbol>

</defs>
</svg>
