<svg aria-hidden="true" style="position: absolute; width: 0; height: 0; overflow: hidden;" version="1.1" xmlns="http://www.w3.org/2000/svg" xmlns:xlink="http://www.w3.org/1999/xlink">
<defs>
<symbol id="icon-npm" viewBox="0 0 82 32">
<path d="M0 13.639v13.639h23.082v4.721h17.836v-4.721h41.443v-27.279h-82.361v13.639zM22.963 13.771l0.143 9.311h-5.27v-13.639h-4.197v13.639h-9.443v-18.909l18.623 0.286 0.143 9.311zM45.902 13.639v9.18l-9.18 0.303v4.68h-9.443v-23.631l18.623 0.286v9.18zM78.164 13.668v9.471l-4.984-0.32-0.103-4.459c-0.057-2.452-0.116-5.463-0.131-6.689l-0.028-2.229h-4.197v13.639h-4.721v-13.639h-4.197v13.639h-9.443v-18.885h27.803v9.471zM36.721 13.902v4.459h4.197v-8.918h-4.197v4.459z"></path>
</symbol>

<symbol id="icon-parcel" viewBox="0 0 157 32">
<path fill="#22ad12" d="M87.069 0.213c-1.417 0.452-2.762 1.587-3.426 2.894-0.591 1.162-0.626 1.905-0.626 12.95v11.717l0.907 1.437c1.516 2.399 2.362 2.645 9.464 2.766 7.202 0.123 8.918-0.204 10.49-2.002 1.269-1.451 1.632-2.881 1.633-6.45l0.002-2.941h-6.337v2.204c0 3.147-0.087 3.202-5.029 3.202-2.714 0-4.157-0.124-4.413-0.381-0.279-0.279-0.38-2.904-0.38-9.825 0-8.317 0.060-9.466 0.501-9.636 0.276-0.107 2.338-0.193 4.583-0.193 4.777 0 4.738-0.027 4.738 3.318v2.089h6.417l-0.14-3.578c-0.142-3.628-0.392-4.529-1.643-5.914-1.508-1.671-2.095-1.788-9.228-1.862-3.659-0.038-7.040 0.055-7.512 0.205zM0 15.959v15.756h6.337v-11.131h5.762c6.69 0 7.867-0.331 9.389-2.638 0.848-1.286 0.851-1.307 0.851-7.356 0-6.957-0.24-7.865-2.481-9.354l-1.273-0.846-18.584-0.186v15.755zM28.007 15.893l-5.066 15.664 3.158 0.091c2.041 0.059 3.235-0.032 3.373-0.257 0.118-0.192 0.618-1.771 1.111-3.51l0.895-3.162h10.32l0.964 3.136c0.53 1.724 0.964 3.299 0.964 3.498 0 0.249 1.097 0.363 3.519 0.363 2.684 0 3.483-0.095 3.369-0.398-0.083-0.218-1.818-5.55-3.854-11.846s-4.278-13.202-4.979-15.345l-1.276-3.897h-7.43l-5.067 15.663zM54.816 15.972v15.742h6.323l0.086-5.804 0.087-5.804h5.070l5.070 11.591 3.433 0.008c1.888 0.005 3.385-0.11 3.327-0.255s-1.238-2.818-2.623-5.942c-1.569-3.54-2.38-5.725-2.154-5.801 1.119-0.375 2.542-1.692 3.166-2.931 0.655-1.301 0.713-1.845 0.706-6.676-0.009-6.756-0.522-8.108-3.559-9.382-0.955-0.4-2.772-0.489-10.048-0.489h-8.882v15.742zM111.216 15.972v15.742h20.596v-6.042h-14.259v-6.983l11.566-0.173 0.091-2.942 0.091-2.941h-11.748v-6.362h14.259v-6.042h-20.596v15.742zM137.515 15.972v15.742h19.645v-6.042h-13.308v-25.442h-6.337v15.742zM100.215 2.89c1.708 0.725 2.244 1.597 2.389 3.878 0.109 1.728 0.050 2.049-0.383 2.049-0.41 0-0.512-0.352-0.512-1.774 0-1.545-0.122-1.896-0.946-2.723l-0.946-0.949-5.858 0.1c-5.609 0.095-5.89 0.129-6.579 0.824l-0.721 0.725v21.908l0.721 0.725c0.69 0.693 0.971 0.728 6.579 0.823l5.858 0.1 0.946-0.949c0.824-0.827 0.946-1.178 0.946-2.724 0-1.421 0.102-1.773 0.512-1.773 0.432 0 0.492 0.32 0.383 2.049-0.238 3.752-1.35 4.312-8.568 4.311-5.898 0-6.974-0.302-7.931-2.226-0.493-0.99-0.554-2.237-0.554-11.29s0.061-10.299 0.554-11.29c0.957-1.923 2.033-2.225 7.931-2.226 3.644 0 5.458 0.127 6.178 0.433zM17.754 3.257c1.633 0.848 1.891 1.821 1.891 7.15 0 5.156-0.261 6.261-1.667 7.066-0.489 0.281-2.83 0.457-7.522 0.566l-6.813 0.159-0.087 5.486c-0.052 3.297-0.21 5.486-0.396 5.486-0.196 0-0.309-4.824-0.309-13.199v-13.198h6.987c5.625 0 7.167 0.094 7.916 0.482zM42.736 15.416c2.131 6.953 3.947 12.891 4.037 13.198 0.104 0.351-0.007 0.557-0.299 0.557-0.254 0-0.558-0.394-0.675-0.875s-0.569-2.055-1.004-3.499l-0.791-2.623h-14.488l-1.003 3.26c-0.983 3.198-1.387 4.038-1.756 3.667-0.102-0.102 1.643-6.065 3.876-13.25l4.062-13.065 4.166-0.011 3.874 12.642zM72.529 3.177c1.7 0.877 2.052 1.847 2.189 6.042 0.077 2.319-0.016 4.428-0.229 5.22-0.499 1.855-1.885 2.965-3.697 2.965-0.771 0-1.401 0.135-1.401 0.299 0 0.166 1.069 2.749 2.376 5.743s2.377 5.506 2.377 5.584c0 0.078-0.184 0.141-0.41 0.141-0.227 0-1.54-2.587-2.947-5.804l-2.537-5.804-9.632-0.175v5.892c0 5.025-0.070 5.892-0.475 5.892-0.415 0-0.475-1.678-0.475-13.199v-13.198l7.050 0.005c4.964 0.003 7.275 0.121 7.812 0.398zM129.197 3.172c-0.099 0.299-1.912 0.419-7.314 0.484l-7.182 0.085v11.436h5.862c4.999 0 5.862 0.071 5.862 0.477s-0.863 0.476-5.862 0.476h-5.862v12.074l7.182 0.085c5.402 0.064 7.215 0.185 7.314 0.484 0.103 0.31-1.567 0.398-7.657 0.398h-7.789v-26.396h7.789c6.091 0 7.761 0.087 7.657 0.398zM141 15.496v12.721h6.654c5.741 0 6.654 0.066 6.654 0.484 0 0.42-0.91 0.471-6.978 0.397l-6.978-0.085 0.004-12.96c0.002-7.128 0.006-13.031 0.008-13.118s0.147-0.159 0.321-0.159c0.206 0 0.316 4.452 0.316 12.721zM3.485 10.407v6.679h6.475c3.561 0 6.833-0.137 7.268-0.303 1.199-0.458 1.555-1.459 1.717-4.829 0.204-4.247-0.119-6.532-1.057-7.474-0.742-0.745-0.82-0.752-7.576-0.752h-6.828v6.678zM32.952 11.122c2.962-11.088 2.030-8.176 1.106-5.261l-3.834 14.007-0.409 1.351h6.946c5.415 0 6.916-0.087 6.815-0.398-0.071-0.218-0.709-2.293-1.415-4.611-0.708-2.318-1.862-6.074-2.567-8.349l-1.281-4.134h-3.041l-2.318 7.394zM58.618 10.248v6.52h6.1c8.818-0.001 9.097-0.199 9.105-6.45 0.005-4.025-0.389-5.631-1.532-6.245-0.399-0.214-3.094-0.343-7.156-0.343h-6.517v6.52zM15.78 6.654c0.521 0.523 0.521 6.982 0 7.505-0.26 0.261-1.809 0.382-4.911 0.382h-4.533v-8.27h4.531c3.102 0 4.651 0.121 4.911 0.382zM70.908 9.884c0.059 2.273-0.036 3.604-0.277 3.896-0.282 0.341-1.412 0.444-4.921 0.444h-4.556v-7.968l9.664 0.176 0.090 3.452zM38.464 12.961c0.853 2.976 1.478 5.485 1.388 5.575s-1.587 0.122-3.328 0.071l-3.166-0.090 1.619-5.484c0.891-3.016 1.691-5.484 1.778-5.483s0.856 2.436 1.709 5.412z"></path>
</symbol>


</defs>
</svg>
