<svg aria-hidden="true" style="position: absolute; width: 0; height: 0; overflow: hidden;" version="1.1" xmlns="http://www.w3.org/2000/svg" xmlns:xlink="http://www.w3.org/1999/xlink">
<defs>
<symbol id="icon-Frame-18" viewBox="0 0 96 32">
<path fill="#fff" style="fill: var(--color1, #fff)" d="M0 0h96v32h-96v-32z"></path>
<path fill="#000" style="fill: var(--color2, #000)" d="M-12 16v40h120v-80h-120v40zM24.737 7.901l4.623 2.621v10.956l-4.623 2.621c-2.542 1.441-4.684 2.621-4.758 2.621s-2.261-1.202-4.858-2.67l-4.722-2.67v-10.76l4.68-2.66c2.574-1.463 4.76-2.664 4.857-2.67s2.258 1.169 4.8 2.611zM52.64 11.498v1.578l0.747-0.378c1.523-0.771 3.2-0.246 4.072 1.276 0.316 0.551 0.381 0.887 0.379 1.946-0.003 1.556-0.391 2.419-1.379 3.073-0.914 0.605-2.441 0.71-3.263 0.225-0.683-0.403-0.715-0.408-0.715-0.098 0 0.181-0.195 0.24-0.795 0.24h-0.795l-0.045-4.72-0.045-4.72 1.84 0v1.578zM81.156 12.6l0.044 2.68 2.187-2.8h0.947c0.521 0 0.947 0.038 0.947 0.085s-0.511 0.732-1.136 1.524c-0.675 0.855-1.099 1.534-1.046 1.672 0.049 0.128 0.596 0.956 1.216 1.841s1.126 1.643 1.126 1.684-0.462 0.074-1.026 0.074h-1.026l-2.187-3.433-0.091 3.433h-1.749v-9.44h1.752l0.044 2.68zM17.611 11.765c-1.182 0.66-2.175 1.226-2.206 1.257-0.062 0.062 4.37 2.658 4.537 2.658 0.124 0 3.861-2.135 4.284-2.447 0.282-0.208 0.143-0.314-1.796-1.383-1.156-0.637-2.229-1.187-2.385-1.221s-1.251 0.476-2.433 1.136zM47.856 12.504c1.307 0.443 2.020 1.411 2.18 2.956l0.089 0.86h-2.347c-1.944 0-2.363 0.041-2.44 0.241-0.14 0.365 0.379 1.037 1.001 1.297 0.624 0.261 1.628 0.089 1.983-0.339 0.274-0.331 0.446-0.302 1.076 0.178l0.547 0.417-0.372 0.404c-0.862 0.937-2.802 1.294-4.097 0.754-1.885-0.786-2.655-3.193-1.65-5.162 0.733-1.437 2.479-2.132 4.031-1.605zM63.404 12.49c0.787 0.218 1.691 1.022 2.057 1.829 0.327 0.72 0.386 2.081 0.129 3.006-0.209 0.752-1.019 1.694-1.703 1.98-0.779 0.325-2.11 0.274-2.732-0.104-0.288-0.176-0.558-0.319-0.6-0.319s-0.076 0.684-0.076 1.52v1.52h-1.76v-9.44h0.8c0.693 0 0.8 0.043 0.8 0.32 0 0.346 0.234 0.428 0.41 0.144 0.165-0.267 1.051-0.611 1.59-0.617 0.264-0.003 0.752 0.070 1.084 0.162zM71 12.722c0.949 0.561 1.074 0.999 1.133 3.958l0.054 2.68h-0.804c-0.442 0-0.845-0.067-0.896-0.149-0.053-0.087-0.276-0.053-0.529 0.079-0.517 0.27-1.751 0.3-2.387 0.059-1.611-0.61-1.937-2.748-0.578-3.785 0.51-0.389 0.723-0.444 1.715-0.444 0.623 0 1.241 0.036 1.373 0.080 0.368 0.123 0.228-0.662-0.179-1-0.412-0.343-1.389-0.364-2.147-0.048l-0.556 0.232-0.639-1.253 0.36-0.194c1.224-0.658 3.159-0.76 4.080-0.216zM78.068 12.714c0.547 0.283 0.563 0.415 0.175 1.436l-0.154 0.405-0.572-0.338c-0.675-0.398-1.666-0.34-2.192 0.129-0.383 0.341-0.765 1.173-0.765 1.664 0 0.573 0.498 1.43 0.974 1.676 0.568 0.294 1.546 0.291 2.066-0.007 0.22-0.126 0.443-0.231 0.495-0.234 0.159-0.009 0.487 1.269 0.373 1.454-0.387 0.626-2.577 0.818-3.669 0.322-2.788-1.267-2.589-5.583 0.307-6.654 0.805-0.297 2.242-0.227 2.963 0.146zM35.028 14.84c0.308 1.254 0.607 2.28 0.664 2.28s0.376-1.044 0.71-2.32l0.607-2.32h1.688l0.238 0.84c0.131 0.462 0.398 1.452 0.593 2.2s0.407 1.418 0.471 1.49 0.31-0.649 0.547-1.6c0.236-0.951 0.501-2 0.588-2.33l0.158-0.6h0.966c0.737 0 0.953 0.052 0.914 0.22-0.028 0.121-0.484 1.668-1.012 3.439l-0.96 3.22-2.081 0.002-0.543-1.96c-0.298-1.078-0.592-2.016-0.652-2.085s-0.387 0.816-0.725 1.967l-0.615 2.092-2.072-0.093-0.756-2.56c-0.416-1.408-0.871-2.941-1.010-3.408l-0.254-0.847 1.975 0.095 0.561 2.28zM15.040 16.23v2.47l2.040 1.122c1.122 0.617 2.168 1.17 2.324 1.229 0.266 0.1 0.281-0.052 0.24-2.328l-0.044-2.435-2.16-1.26c-1.188-0.693-2.214-1.262-2.28-1.264s-0.12 1.107-0.12 2.466zM22.444 15.014l-2.116 1.226-0.004 2.44c-0.002 1.342 0.034 2.44 0.081 2.44s1.091-0.554 2.32-1.231l2.235-1.231v-2.449c0-1.86-0.048-2.445-0.2-2.435-0.11 0.008-1.152 0.566-2.316 1.24zM46.098 13.977c-0.349 0.2-0.798 0.809-0.812 1.103-0.003 0.066 0.672 0.12 1.499 0.12 1.404 0 1.5-0.021 1.425-0.306-0.21-0.805-1.403-1.322-2.112-0.917zM53.297 14.33c-0.623 0.524-0.868 1.366-0.643 2.203 0.252 0.936 0.784 1.387 1.637 1.387 0.89 0 1.475-0.436 1.73-1.289 0.553-1.846-1.352-3.456-2.724-2.301zM61.502 14.077c-0.186 0.075-0.492 0.332-0.68 0.572-0.63 0.801-0.359 2.674 0.449 3.107 0.465 0.249 1.491 0.198 1.91-0.096 0.205-0.144 0.473-0.501 0.596-0.795 0.725-1.734-0.665-3.438-2.275-2.787zM68.265 16.613c-0.501 0.554-0.299 1.219 0.446 1.464 1.075 0.355 2.017-0.512 1.468-1.351-0.217-0.332-0.394-0.407-0.958-0.407-0.467 0-0.778 0.095-0.956 0.293z"></path>
</symbol>
</defs>
</svg>
